Coordinates
version=1
nRows=17
nColumns=24
inDegrees=yes

Units are S.I. units (second, meters, Newtons, ...)
Angles are in degrees.

endheader
time	pelvis_tilt	pelvis_list	pelvis_rotation	pelvis_tx	pelvis_ty	pelvis_tz	hip_flexion_r	hip_adduction_r	hip_rotation_r	knee_angle_r	ankle_angle_r	subtalar_angle_r	mtp_angle_r	hip_flexion_l	hip_adduction_l	hip_rotation_l	knee_angle_l	ankle_angle_l	subtalar_angle_l	mtp_angle_l	lumbar_extension	lumbar_bending	lumbar_rotation
      1.42500000	      0.96167080	      5.73827641	     -4.05728312	      0.39302816	      1.02351760	      0.28574146	     15.34532041	     -5.29011247	      1.07139799	    -60.14122672	      5.40664834	    -15.14804832	     -0.61496393	      3.29994359	     10.28513242	      0.67827884	     -7.84873495	      1.69652273	    -17.94904930	      0.53832563	     -3.78981558	     -7.57728627	      4.88386373
      1.42916667	      0.95955938	      5.63627350	     -3.88571636	      0.39801475	      1.02401471	      0.28557796	     15.73869832	     -5.15398056	      0.95910310	    -59.35049573	      5.58012746	    -15.09881876	     -0.68804350	      2.80169154	     10.20402149	      0.89864029	     -7.52125820	      1.76096922	    -17.92257857	      0.46753941	     -3.83635514	     -7.47524113	      4.60758485
      1.43333333	      0.94292308	      5.54296676	     -3.71328084	      0.40298800	      1.02443523	      0.28541352	     16.14001034	     -5.03108041	      0.84669384	    -58.52827154	      5.74921075	    -15.04881338	     -0.76110634	      2.32461831	     10.12792702	      1.11474639	     -7.19966341	      1.83122005	    -17.89136998	      0.39270607	     -3.86655754	     -7.38055161	      4.32154491
      1.43750000	      0.93848286	      5.44800908	     -3.54245814	      0.40796002	      1.02484401	      0.28526266	     16.51195169	     -4.91011385	      0.73160046	    -57.66103980	      5.90084023	    -15.00829226	     -0.82174507	      1.83737888	     10.04534775	      1.31232535	     -6.88199326	      1.90995871	    -17.84426992	      0.32822577	     -3.90699289	     -7.28031288	      4.06911220
      1.44166667	      0.94104461	      5.35545010	     -3.37406571	      0.41292324	      1.02523714	      0.28512841	     16.86172208	     -4.79215636	      0.62325879	    -56.75169810	      6.03834248	    -14.98527294	     -0.88210127	      1.34379466	      9.96191837	      1.51418805	     -6.56305135	      1.97988749	    -17.79604574	      0.26214228	     -3.96118496	     -7.19010516	      3.79524769
      1.44583333	      0.90237507	      5.26148811	     -3.20242149	      0.41788219	      1.02552821	      0.28499291	     17.24377163	     -4.67324260	      0.51459698	    -55.80779468	      6.17933585	    -14.94918456	     -0.91168599	      0.90999614	      9.86896576	      1.67616507	     -6.27074709	      2.04372272	    -17.71356016	      0.22930742	     -3.95848184	     -7.09138200	      3.62909515
      1.45000000	      0.90930868	      5.19372419	     -3.04091802	      0.42283100	      1.02581828	      0.28486681	     17.57386117	     -4.59162735	      0.41022769	    -54.84567604	      6.26833524	    -14.94843610	     -0.96837376	      0.41371304	      9.80784383	      1.88259712	     -5.94817270	      2.14037224	    -17.69034289	      0.16682772	     -4.01652278	     -7.02363120	      3.27141503
      1.45416667	      0.86568386	      5.11057699	     -2.87586784	      0.42777945	      1.02601350	      0.28475814	     17.93884018	     -4.48770016	      0.31126681	    -53.83794914	      6.38029644	    -14.92214307	     -0.99715121	     -0.00720784	      9.71982651	      2.03834424	     -5.66474916	      2.20180841	    -17.61061353	      0.13493350	     -4.00997469	     -6.93660593	      3.10735548
      1.45833333	      0.85870911	      5.04129839	     -2.71370403	      0.43271239	      1.02622011	      0.28465462	     18.25318494	     -4.40700863	      0.21018449	    -52.79940540	      6.45160607	    -14.91554849	     -1.03006487	     -0.47282404	      9.64723066	      2.21379402	     -5.36630282	      2.28240482	    -17.54958447	      0.09968502	     -4.04784086	     -6.86623991	      2.86343419
      1.46250000	      0.85014942	      4.98390171	     -2.56553632	      0.43763363	      1.02636453	      0.28458050	     18.56579116	     -4.33535027	      0.12952110	    -51.74312417	      6.48450957	    -14.95544453	     -1.08843002	     -0.94371354	      9.58602984	      2.40824666	     -5.04924068	      2.37022836	    -17.52818306	      0.03552664	     -4.09647150	     -6.81959874	      2.50731596
      1.46666667	      0.80338795	      4.92393167	     -2.41266752	      0.44258101	      1.02644091	      0.28449690	     18.89767384	     -4.26629983	      0.03947503	    -50.64301924	      6.53127567	    -14.93138106	     -1.11809175	     -1.35130507	      9.51609459	      2.54547803	     -4.77795110	      2.44430133	    -17.45985770	      0.00340762	     -4.07026355	     -6.75345759	      2.35163058
      1.47083333	      0.76941435	      4.85866706	     -2.26274569	      0.44752048	      1.02648042	      0.28442327	     19.20260747	     -4.19323572	     -0.04802740	    -49.51424092	      6.53510737	    -14.94616023	     -1.15001004	     -1.77578921	      9.43899001	      2.69805872	     -4.50031247	      2.53502157	    -17.39727584	     -0.02904779	     -4.07875790	     -6.68310056	      2.13520464
      1.47500000	      0.76728605	      4.81713483	     -2.12816464	      0.45244156	      1.02651353	      0.28437281	     19.46990356	     -4.14689501	     -0.11967073	    -48.37036943	      6.50203039	    -15.00451133	     -1.20144111	     -2.24254422	      9.38833124	      2.86668947	     -4.20068881	      2.63647991	    -17.36349096	     -0.08450988	     -4.12915009	     -6.65348755	      1.81667171
      1.47916667	      0.73486051	      4.76833899	     -1.98903625	      0.45737814	      1.02647981	      0.28433184	     19.74902656	     -4.09465703	     -0.19856423	    -47.18836042	      6.46892047	    -15.02433031	     -1.25226252	     -2.66394549	      9.32483166	      3.01532688	     -3.92767845	      2.72263758	    -17.31909768	     -0.14091664	     -4.13476889	     -6.60434179	      1.58798334
      1.48333333	      0.69298940	      4.72765037	     -1.85745421	      0.46232113	      1.02639006	      0.28429899	     20.02625689	     -4.05153901	     -0.26763816	    -45.98076888	      6.41211420	    -15.04848125	     -1.30141707	     -3.07150910	      9.26842396	      3.15637905	     -3.66219270	      2.81521999	    -17.26658137	     -0.19634282	     -4.12775610	     -6.56624466	      1.37465366
      1.48750000	      0.63552164	      4.69680013	     -1.73106131	      0.46726993	      1.02622572	      0.28426147	     20.31233963	     -4.02610946	     -0.34361953	    -44.75830625	      6.36113876	    -15.01238281	     -1.32615372	     -3.45189849	      9.22119160	      3.26598033	     -3.41523127	      2.90549597	    -17.19761168	     -0.22312590	     -4.09912211	     -6.53109700	      1.24770569
      1.49166667	      0.61271793	      4.66634590	     -1.61595011	      0.47221199	      1.02607393	      0.28426214	     20.54461022	     -3.99404676	     -0.40110598	    -43.50291378	      6.24152108	    -15.08654402	     -1.36875948	     -3.87879150	      9.17445377	      3.40710703	     -3.15252136	      3.02669827	    -17.15435894	     -0.27141492	     -4.11810722	     -6.51095181	      0.99245180
